<?xml version="1.0" standalone="no"?>
<!DOCTYPE svg PUBLIC "-//W3C//DTD SVG 20010904//EN"
 "http://www.w3.org/TR/2001/REC-SVG-20010904/DTD/svg10.dtd">
<svg version="1.0" xmlns="http://www.w3.org/2000/svg"
 width="850.000000pt" height="850.000000pt" viewBox="0 0 850.000000 850.000000"
 preserveAspectRatio="xMidYMid meet">
<metadata>
Created by potrace 1.11, written by Peter Selinger 2001-2013
</metadata>
<g transform="translate(0.000000,850.000000) scale(0.100000,-0.100000)"
fill="#000000" stroke="none">
<path d="M3487 8464 c3 -9 -1 -14 -13 -14 -16 0 -17 -2 -4 -10 8 -5 10 -10 4
-10 -6 0 -10 -10 -9 -22 1 -13 -3 -29 -9 -37 -9 -12 -8 -13 4 -6 13 8 13 7 1
-8 -10 -13 -10 -17 -1 -17 10 0 10 -3 0 -15 -7 -8 -8 -15 -2 -15 5 0 8 -14 7
-30 -1 -17 4 -37 11 -45 17 -16 18 -29 3 -19 -9 5 -10 -1 -5 -20 5 -21 4 -26
-6 -20 -10 6 -10 5 -1 -7 16 -20 17 -31 1 -40 -11 -7 -11 -9 0 -9 10 0 10 -4
-2 -16 -12 -11 -13 -20 -6 -34 8 -15 6 -21 -9 -29 -10 -6 -22 -7 -26 -3 -5 4
-5 1 -1 -5 4 -7 2 -13 -4 -13 -6 0 -8 -5 -5 -10 4 -6 3 -10 -2 -9 -19 3 -34
-2 -28 -10 3 -5 0 -13 -6 -17 -7 -4 -9 -3 -5 4 3 6 2 13 -4 17 -9 6 -15 -8
-11 -29 1 -5 -6 -3 -16 4 -10 8 -15 11 -11 6 7 -9 -26 -46 -42 -46 -5 0 -10
-5 -10 -11 0 -5 -4 -8 -9 -5 -5 3 -16 -5 -25 -19 -9 -14 -25 -25 -36 -25 -11
0 -20 -5 -20 -11 0 -5 -5 -7 -12 -3 -8 5 -9 2 -5 -10 4 -10 3 -15 -3 -11 -6 3
-10 2 -10 -4 0 -6 -7 -8 -15 -5 -8 4 -15 1 -15 -5 0 -6 -9 -11 -21 -11 -14 0
-19 -5 -16 -14 4 -10 0 -14 -14 -11 -10 2 -19 -1 -19 -6 0 -6 -4 -8 -9 -5 -5
3 -8 -2 -7 -12 1 -12 -5 -16 -21 -14 -13 2 -23 -2 -23 -7 0 -6 -6 -10 -12 -8
-7 1 -12 -3 -11 -10 2 -7 -3 -10 -11 -7 -7 3 -20 -2 -29 -10 -9 -9 -20 -16
-26 -16 -6 0 -11 -7 -11 -16 0 -8 -5 -12 -10 -9 -6 3 -13 0 -16 -9 -3 -8 -12
-12 -20 -9 -10 4 -17 -2 -21 -16 -3 -11 -10 -21 -15 -21 -5 0 -6 5 -3 11 4 6
-2 5 -14 -3 -12 -7 -21 -16 -21 -20 0 -4 -8 -4 -17 -1 -16 6 -16 5 -4 -11 13
-16 13 -18 0 -16 -24 4 -40 0 -36 -7 3 -5 -2 -14 -10 -22 -13 -12 -14 -11 -9
10 l7 24 -14 -23 c-7 -12 -16 -19 -20 -16 -4 4 -7 2 -7 -4 0 -7 -7 -12 -16
-12 -8 0 -12 -4 -9 -10 6 -9 -8 -14 -27 -11 -5 0 -8 -6 -8 -14 0 -8 -4 -15
-10 -15 -5 0 -10 -5 -10 -11 0 -5 5 -7 12 -3 6 4 8 3 4 -4 -3 -6 -15 -9 -26
-7 -13 2 -18 0 -14 -7 4 -5 0 -14 -7 -19 -10 -6 -11 -9 -1 -9 6 0 12 -4 12
-10 0 -5 -8 -6 -17 -3 -15 6 -16 4 -5 -9 10 -13 10 -18 1 -24 -8 -4 -9 -3 -5
4 4 7 5 12 2 12 -2 0 -11 -14 -20 -30 -8 -17 -11 -28 -6 -25 4 3 8 -15 7 -40
0 -28 -4 -42 -11 -38 -6 4 -2 -4 9 -17 11 -13 15 -20 8 -17 -7 5 -9 0 -5 -15
4 -16 2 -19 -9 -13 -9 5 -8 2 3 -11 9 -10 18 -23 20 -29 2 -5 7 -9 11 -7 5 1
6 -2 2 -8 -3 -5 5 -22 19 -37 14 -15 22 -31 19 -36 -3 -5 1 -13 8 -18 12 -7
12 -9 0 -9 -11 0 -11 -3 0 -17 12 -15 12 -16 -1 -8 -9 5 -7 -1 5 -15 11 -13
15 -20 9 -17 -7 4 -15 0 -18 -9 -4 -10 -2 -13 7 -8 9 6 9 5 0 -7 -7 -8 -12
-24 -12 -34 0 -11 -1 -42 -1 -69 0 -27 1 -51 4 -53 3 -3 1 -16 -5 -30 -5 -13
-5 -22 0 -19 5 3 11 -1 14 -9 4 -10 1 -12 -10 -8 -11 4 -14 2 -9 -5 5 -9 -289
-12 -1233 -12 l-1241 0 0 -2780 0 -2780 940 0 c517 0 940 -3 940 -8 0 -4 -13
-18 -30 -32 -21 -17 -26 -27 -17 -32 8 -5 7 -8 -5 -8 -19 0 -60 -48 -52 -61 3
-5 1 -9 -3 -9 -5 0 -18 -7 -29 -16 -10 -8 -13 -13 -6 -9 6 3 12 1 12 -4 0 -6
-7 -11 -16 -11 -10 0 -14 -6 -11 -14 4 -11 1 -13 -11 -9 -15 6 -15 5 -4 -10
12 -14 11 -16 -7 -12 -11 2 -20 1 -20 -3 3 -19 -2 -33 -10 -28 -5 4 -8 -5 -7
-18 2 -19 -1 -23 -13 -18 -14 5 -14 4 -1 -14 8 -10 10 -16 5 -11 -14 12 -46
-65 -33 -81 6 -7 7 -12 2 -11 -21 4 -26 -2 -13 -18 12 -14 12 -16 0 -8 -11 6
-13 4 -8 -8 4 -10 1 -17 -6 -17 -8 0 -6 -4 3 -10 12 -7 12 -10 1 -10 -7 0 -11
-6 -8 -15 4 -8 2 -17 -2 -19 -4 -3 -7 -21 -6 -41 1 -19 -2 -35 -6 -35 -21 0
20 -96 48 -111 12 -7 19 -17 16 -23 -4 -6 1 -5 11 3 15 12 17 12 14 0 -2 -8 4
-13 15 -13 10 1 17 -5 17 -15 0 -9 10 -21 23 -26 15 -7 21 -17 19 -35 -1 -13
1 -21 4 -17 11 11 34 -13 34 -35 0 -10 4 -16 10 -13 5 3 10 -1 10 -10 0 -8 7
-18 15 -21 8 -3 17 -14 20 -25 4 -11 11 -17 16 -14 5 4 9 -1 9 -10 0 -9 4 -13
10 -10 5 3 10 1 10 -5 0 -6 4 -9 9 -5 5 3 12 -3 15 -12 6 -18 49 -43 73 -43 8
0 16 -6 19 -14 3 -7 15 -13 27 -12 12 1 28 -5 35 -14 8 -9 11 -10 7 -1 -6 9
-1 9 17 -3 13 -9 37 -17 51 -18 19 -2 26 -7 22 -17 -4 -11 -3 -11 9 -2 11 10
17 8 25 -6 8 -14 10 -15 11 -3 0 13 1 13 10 0 9 -13 10 -13 10 0 1 12 2 12 10
-1 8 -15 38 -17 234 -18 219 -2 225 -1 231 19 3 11 10 18 15 15 5 -3 7 4 5 15
-2 11 0 18 6 15 5 -4 9 -2 9 4 0 6 10 20 23 32 12 12 17 19 11 16 -6 -3 -11 0
-11 8 0 8 3 12 7 10 7 -4 43 32 49 50 2 6 7 9 12 8 4 -2 6 4 3 12 -4 8 -1 15
6 15 8 0 11 11 8 29 -2 17 -1 28 4 25 4 -3 10 7 14 21 6 23 15 30 37 26 4 0 7
3 7 8 0 5 14 7 30 6 17 -1 30 2 30 9 0 7 3 7 8 1 6 -9 22 -11 47 -5 6 1 13 2
18 1 4 0 7 4 7 10 0 5 5 7 11 3 6 -3 15 0 20 7 6 9 9 10 9 2 0 -9 7 -8 27 2
15 8 30 12 35 9 4 -3 8 0 8 6 0 7 7 10 15 6 8 -3 15 -1 15 5 0 8 41 31 62 33
3 1 10 5 15 10 5 5 3 6 -4 2 -7 -4 -13 -3 -13 2 0 6 11 13 25 16 14 4 23 11
20 15 -6 11 14 9 33 -2 11 -8 16 -2 13 16 -1 5 3 6 7 3 12 -7 54 29 45 38 -4
4 0 4 9 1 9 -4 19 -1 24 6 5 8 3 10 -7 4 -8 -5 -11 -4 -6 1 9 9 13 10 43 13 8
0 12 5 9 11 -3 5 0 10 8 10 19 0 77 68 63 74 -6 2 -3 5 7 5 9 1 17 8 17 17 0
8 4 12 10 9 5 -3 12 6 16 20 3 14 11 22 17 18 6 -4 8 2 5 15 -4 12 -2 20 3 16
5 -3 9 0 9 5 0 6 9 20 20 31 11 11 16 20 10 20 -5 0 -1 9 10 20 12 12 18 25
15 30 -4 6 1 13 10 16 12 5 13 9 4 20 -9 11 -8 14 7 14 16 0 17 2 4 10 -10 6
-11 10 -2 10 6 0 12 7 12 15 0 8 4 15 8 15 5 0 9 7 10 15 1 8 3 22 4 30 1 8 5
15 10 15 4 0 8 10 8 22 0 12 8 30 18 41 9 11 11 17 5 13 -7 -4 -13 -2 -13 3 0
6 5 11 12 11 6 0 8 3 5 7 -4 3 -1 13 6 21 10 13 9 14 -2 7 -10 -5 -12 -4 -7 3
4 8 37 12 86 12 79 0 80 0 78 -25 -1 -14 -5 -25 -9 -25 -4 0 -6 -11 -4 -25 1
-14 -2 -25 -8 -25 -5 0 -7 -9 -4 -20 3 -11 0 -20 -6 -20 -6 0 -7 -3 -4 -7 4
-3 2 -12 -4 -20 -9 -10 -8 -13 2 -13 11 0 11 -2 -1 -10 -11 -7 -11 -10 -2 -10
7 0 10 -5 7 -10 -4 -6 -10 -8 -13 -6 -4 2 -7 -8 -6 -22 0 -15 -4 -30 -10 -34
-7 -5 -6 -8 3 -8 11 0 11 -3 1 -15 -10 -12 -10 -15 1 -15 11 0 11 -2 1 -9 -7
-4 -14 -30 -15 -58 -1 -28 -5 -49 -9 -46 -9 5 -12 -30 -9 -90 2 -30 -1 -37
-11 -31 -7 4 -5 -2 5 -13 18 -21 18 -22 0 -32 -10 -6 -12 -11 -5 -11 6 0 12
-5 12 -11 0 -5 -5 -7 -11 -3 -7 4 -7 -1 1 -16 8 -15 8 -20 1 -16 -15 10 -14
-17 2 -33 10 -10 9 -11 -3 -6 -12 4 -15 -3 -14 -37 1 -24 -4 -46 -10 -50 -8
-5 -7 -8 2 -8 9 0 10 -5 3 -19 -6 -10 -7 -21 -4 -25 3 -3 1 -6 -7 -6 -10 0
-10 -3 0 -15 10 -12 9 -16 -5 -21 -13 -5 -14 -9 -3 -15 9 -6 10 -9 1 -9 -7 0
-10 -7 -7 -15 4 -8 1 -15 -5 -15 -6 0 -8 -7 -4 -17 5 -12 3 -14 -8 -8 -11 6
-12 5 -2 -5 10 -11 9 -16 -5 -27 -16 -12 -15 -12 3 -6 19 6 19 5 3 -13 -13
-14 -14 -23 -6 -38 7 -12 7 -16 0 -12 -5 3 -12 -3 -15 -14 -3 -14 -1 -18 6
-13 7 4 4 -5 -6 -20 -16 -25 -16 -26 0 -20 15 5 16 3 6 -8 -7 -7 -13 -17 -13
-21 0 -4 424 -8 943 -7 518 0 936 3 929 6 -6 2 -10 9 -6 14 3 5 0 9 -5 9 -6 0
-11 9 -11 20 0 11 -5 20 -11 20 -5 0 -7 5 -4 10 3 6 1 10 -6 10 -8 0 -7 5 2
17 8 9 10 14 4 11 -5 -3 -15 0 -22 7 -10 11 -10 15 0 18 8 4 8 6 -2 6 -11 1
-11 4 0 18 12 14 12 16 0 8 -11 -6 -13 -3 -9 13 4 12 2 20 -2 17 -5 -3 -14 5
-21 17 -11 21 -11 22 5 9 14 -12 16 -12 10 3 -3 9 -10 16 -14 16 -5 0 -7 9 -5
20 2 11 1 20 -3 20 -4 0 -12 16 -18 35 -8 24 -8 32 0 28 6 -4 5 0 -1 9 -7 8
-10 18 -6 21 3 4 -2 7 -13 7 -14 0 -16 2 -5 9 9 6 10 10 2 12 -7 3 -13 14 -14
26 0 12 -5 19 -9 17 -4 -3 -8 -2 -9 3 -3 35 -12 58 -27 70 -16 12 -16 13 3 7
20 -6 20 -5 1 10 -12 9 -15 16 -7 16 9 0 8 4 -3 15 -8 9 -13 22 -10 29 3 8 0
17 -7 22 -8 5 -10 3 -4 -6 5 -9 4 -11 -4 -6 -6 4 -9 11 -6 16 3 4 -2 21 -10
36 -8 16 -15 23 -15 16 0 -10 -3 -10 -14 0 -8 7 -12 16 -9 21 2 4 -1 7 -8 7
-13 0 -59 46 -53 53 3 2 -2 10 -10 16 -11 9 -12 19 -6 36 5 13 6 26 3 29 -4 3
-1 6 6 6 7 0 9 5 6 10 -3 5 -1 10 5 10 6 0 9 4 6 8 -3 5 4 15 14 22 16 11 17
17 7 29 -10 12 -9 13 1 7 8 -5 19 -1 28 10 14 18 74 139 74 149 0 3 10 16 22
30 21 24 27 25 133 25 91 0 112 -3 112 -15 0 -8 -4 -12 -8 -10 -10 7 -41 -44
-34 -56 4 -5 1 -8 -7 -7 -7 2 -12 -2 -11 -9 2 -6 -6 -15 -17 -18 -11 -4 -18
-11 -15 -16 4 -5 1 -9 -5 -9 -7 0 -10 -6 -8 -12 3 -7 -1 -19 -9 -26 -7 -8 -11
-18 -8 -23 4 -5 1 -9 -5 -9 -6 0 -9 -4 -5 -9 3 -5 1 -12 -5 -16 -6 -4 -8 -11
-5 -16 4 -5 2 -9 -4 -9 -6 0 -8 -7 -5 -15 4 -9 0 -15 -7 -15 -9 0 -10 -3 -4
-8 13 -9 16 -44 2 -35 -6 4 -8 -4 -5 -21 3 -14 1 -26 -4 -26 -5 0 -6 -5 -3
-10 4 -6 1 -18 -7 -27 -7 -9 -8 -14 -2 -10 7 4 12 -2 12 -18 0 -14 -6 -25 -12
-25 -6 0 -4 -5 4 -10 13 -8 13 -13 2 -31 -8 -13 -9 -18 -2 -14 7 4 10 0 8 -11
-2 -12 2 -18 11 -16 12 3 12 0 1 -12 -7 -9 -8 -16 -3 -16 8 0 10 -7 14 -65 1
-15 6 -22 13 -18 6 4 5 0 -2 -9 -11 -14 -10 -18 5 -27 10 -6 12 -11 6 -11 -7
0 -13 -5 -13 -11 0 -5 4 -8 9 -5 4 3 7 -8 5 -25 -2 -16 0 -28 5 -25 9 6 17
-23 28 -97 3 -20 9 -40 14 -43 5 -3 9 -16 9 -30 0 -13 6 -24 13 -24 8 0 7 -4
-3 -10 -8 -5 -10 -10 -5 -10 13 0 36 -50 29 -61 -3 -5 -1 -9 5 -9 6 0 18 -17
28 -37 9 -21 22 -41 27 -45 16 -11 1346 -9 1346 2 0 5 8 11 18 14 10 3 18 16
19 27 2 17 -1 19 -10 10 -6 -6 -16 -11 -22 -11 -5 0 -3 5 5 10 8 5 16 14 16
20 1 5 2 15 3 21 0 6 10 9 21 6 11 -3 18 -1 14 4 -3 5 1 9 8 9 7 0 2 7 -10 16
-21 14 -22 41 -1 28 5 -3 7 -9 5 -13 -3 -4 2 -8 10 -8 9 0 11 4 5 10 -5 5 -7
16 -4 25 4 9 2 13 -4 9 -13 -8 -11 19 2 30 4 4 5 3 2 -3 -4 -7 -1 -14 7 -17
10 -4 12 0 8 15 -3 14 -1 19 6 14 8 -5 10 -2 6 8 -3 9 -10 16 -16 16 -5 0 -7
-4 -4 -8 3 -5 -1 -9 -9 -9 -11 0 -12 4 -4 14 6 7 8 21 5 30 -6 17 -5 17 8 0
13 -16 14 -16 22 10 4 15 8 33 9 38 0 6 6 9 13 8 6 -2 9 4 5 13 -4 11 -8 12
-13 4 -5 -8 -10 -9 -14 -2 -3 6 -2 14 4 17 6 4 8 16 4 27 -4 12 -2 18 4 14 5
-3 8 7 6 25 -3 21 0 28 8 23 7 -5 8 -3 2 7 -12 19 -13 62 -1 70 5 3 1 9 -8 12
-9 4 -13 3 -10 -3 3 -6 1 -10 -5 -10 -7 0 -9 7 -6 16 3 9 6 18 6 20 0 3 4 3 9
-1 5 -3 13 0 17 6 4 8 3 9 -4 5 -7 -4 -12 -2 -12 4 0 6 -4 9 -8 6 -5 -3 -9 2
-9 10 0 8 6 13 13 10 8 -3 16 0 20 6 5 7 2 8 -6 3 -10 -6 -12 -4 -7 8 4 10 2
16 -6 14 -13 -2 -17 30 -6 53 4 8 0 20 -9 30 -10 8 -18 22 -20 30 -1 8 6 5 16
-9 13 -16 21 -20 26 -12 4 6 0 14 -8 17 -9 3 -16 13 -16 21 0 8 5 11 12 7 7
-5 8 -3 2 7 -4 8 -10 23 -11 34 -2 11 -9 24 -15 30 -8 7 -9 6 -3 -4 5 -9 4
-12 -2 -8 -5 3 -9 24 -9 47 1 25 -3 39 -10 36 -6 -2 -11 2 -11 10 0 7 4 11 9
8 4 -3 5 2 2 10 -3 9 -10 13 -15 10 -5 -3 -9 1 -9 8 0 10 -3 9 -11 -2 -9 -12
-10 -11 -4 5 4 11 8 25 9 30 1 6 6 17 11 25 8 13 7 13 -8 1 -15 -12 -17 -11
-17 3 0 10 -4 15 -9 12 -17 -11 -19 19 -2 39 12 15 12 17 1 8 -17 -13 -43 1
-48 27 -5 24 -18 31 -18 11 0 -11 4 -17 8 -15 5 3 7 1 6 -5 -2 -5 6 -16 16
-24 15 -11 16 -16 6 -22 -9 -5 -11 -4 -6 3 7 11 -6 17 -27 13 -5 -1 -6 3 -3 8
4 5 2 12 -3 16 -6 3 -8 12 -4 20 4 11 1 13 -13 8 -18 -6 -18 -6 -2 10 15 16
69 17 667 17 l651 0 0 2780 0 2780 -1180 0 c-780 0 -1180 3 -1180 10 0 6 -3 9
-7 9 -28 -5 -35 1 -22 18 8 9 10 14 4 11 -5 -3 -16 0 -23 8 -7 8 -10 14 -6 14
4 0 -2 10 -14 23 -12 13 -19 27 -15 32 5 4 2 5 -5 1 -11 -6 -10 -12 4 -27 16
-18 16 -19 1 -13 -17 6 -21 16 -18 43 2 7 -2 10 -8 6 -7 -3 -11 3 -11 15 0 12
-4 18 -11 15 -6 -4 -10 -1 -8 6 3 28 -1 38 -20 44 -10 3 -21 15 -24 25 -3 13
-1 18 6 13 7 -4 6 1 -2 10 -7 9 -10 17 -5 17 5 0 1 5 -9 11 -15 9 -16 13 -5
27 11 13 11 14 -1 7 -11 -6 -13 -4 -8 8 3 10 2 17 -4 17 -6 0 -7 6 -2 13 11
18 13 38 2 31 -5 -3 -6 -10 -3 -16 4 -6 2 -8 -4 -5 -5 4 -8 17 -4 29 3 14 1
19 -6 14 -8 -5 -10 -2 -6 8 3 9 11 13 18 10 6 -3 2 2 -8 10 -11 9 -15 16 -10
16 5 0 10 13 9 29 0 19 -4 26 -10 21 -7 -6 -11 -2 -11 11 0 10 7 19 16 20 9 0
6 4 -7 9 -27 11 -31 22 -5 14 16 -5 16 -5 0 8 -12 10 -13 19 -7 31 8 13 6 17
-5 17 -8 0 -18 5 -22 12 -4 7 -3 8 4 4 21 -12 33 3 19 25 -10 16 -9 21 3 29 8
5 10 10 4 10 -5 0 -16 -6 -23 -12 -11 -11 -11 -9 -2 9 15 30 14 36 -6 29 -17
-6 -17 -5 0 8 20 15 23 30 5 21 -7 -4 -4 1 6 9 19 16 19 16 -5 16 -21 1 -22 2
-7 11 16 9 17 12 2 34 -11 17 -12 25 -3 31 7 4 9 3 5 -4 -3 -6 -2 -13 3 -16 5
-4 8 2 6 11 -1 11 -9 17 -21 15 -15 -3 -16 -1 -5 12 9 11 10 16 2 16 -6 0 -11
5 -11 11 0 5 5 7 10 4 6 -3 10 -2 10 3 0 6 -7 12 -15 16 -12 4 -13 11 -5 32
10 25 9 26 -7 13 -9 -8 -14 -9 -10 -2 4 6 1 14 -5 16 -10 4 -10 6 0 6 9 1 8 8
-5 28 -16 24 -16 26 -1 21 14 -6 15 -4 3 19 -8 15 -11 31 -8 36 3 6 1 7 -6 3
-6 -4 -8 -13 -5 -19 4 -7 3 -8 -2 -4 -5 5 -10 13 -10 18 -1 5 -2 14 -3 20 0 5
-5 7 -11 4 -5 -3 -10 0 -10 8 0 8 -7 20 -15 27 -11 9 -15 10 -15 1 0 -8 -5 -7
-15 3 -18 17 -20 30 -3 20 7 -4 8 -3 4 5 -6 9 -11 9 -22 0 -11 -9 -14 -9 -14
0 0 7 -4 9 -10 6 -5 -3 -10 -1 -10 5 0 6 -4 8 -10 5 -5 -3 -10 0 -10 7 0 9 -3
9 -10 -2 -8 -12 -10 -12 -10 5 0 17 -2 17 -10 5 -5 -8 -10 -10 -10 -4 0 19
-37 23 -62 6 -15 -10 -18 -10 -10 -2 18 21 15 35 -5 19 -11 -10 -14 -10 -9 -1
4 7 2 12 -8 12 -8 0 -17 -6 -19 -12 -3 -8 -6 -6 -6 5 -1 9 -6 17 -12 17 -5 0
-8 -4 -4 -9 3 -5 0 -13 -6 -17 -8 -4 -9 -3 -5 4 4 7 1 12 -8 12 -9 0 -16 4
-16 10 0 5 -7 7 -15 4 -9 -4 -15 -1 -15 7 0 8 -6 5 -16 -7 -8 -10 -13 -14 -11
-9 3 6 -2 16 -10 24 -12 11 -14 11 -11 -2 2 -9 -1 -16 -7 -16 -5 0 -8 8 -7 17
2 9 1 14 -3 10 -4 -4 -17 -3 -28 3 -13 7 -17 7 -13 1 3 -6 2 -13 -4 -17 -5 -3
-10 -1 -10 4 0 6 -9 11 -21 11 -13 0 -18 -4 -13 -12 4 -7 3 -8 -5 -4 -6 4 -9
11 -6 15 2 5 -7 13 -21 20 -14 6 -23 7 -20 2 3 -5 -1 -12 -10 -15 -8 -3 -13
-2 -10 2 2 4 -2 16 -10 27 -8 10 -14 13 -14 7 0 -7 -5 -12 -11 -12 -5 0 -8 4
-4 9 3 5 0 13 -6 17 -8 4 -9 3 -5 -4 4 -7 1 -12 -9 -12 -12 0 -15 5 -11 18 5
14 3 13 -10 -3 -16 -20 -16 -19 -11 5 6 24 5 24 -8 6 -8 -11 -15 -14 -15 -7 0
7 -4 10 -9 6 -5 -3 -13 0 -17 6 -4 7 -3 9 4 5 6 -3 13 -2 16 3 3 5 -8 7 -24 6
-17 -1 -30 2 -30 8 0 6 -3 7 -6 4 -4 -3 -16 -1 -28 5 -20 10 -20 10 -6 -7 14
-17 14 -17 -7 -5 -12 8 -19 18 -16 24 4 5 -1 7 -11 3 -10 -4 -27 -1 -39 5 -12
7 -24 13 -27 13 -33 8 -60 27 -54 37 6 10 4 10 -8 0 -13 -10 -18 -10 -24 -1
-4 8 -3 9 4 5 7 -4 10 -2 7 6 -3 8 -17 15 -31 16 -17 1 -23 -2 -18 -11 4 -7 3
-9 -2 -4 -5 5 -10 13 -10 18 -1 5 -2 12 -3 15 0 4 -9 0 -18 -7 -11 -10 -14
-10 -9 -1 9 15 -15 16 -32 2 -6 -6 -10 -7 -7 -4 7 9 -15 34 -29 34 -6 0 -4 -5
4 -10 12 -7 10 -9 -7 -7 -12 0 -20 4 -17 8 2 4 -12 16 -32 28 -19 12 -32 15
-29 9 4 -7 -2 -3 -13 10 -14 15 -22 18 -25 10 -4 -10 -6 -10 -6 0 -1 6 -10 12
-21 12 -11 0 -20 4 -20 8 0 5 -12 14 -27 21 -25 11 -25 11 -12 -6 8 -9 -2 -5
-23 10 -24 19 -39 24 -43 17 -5 -8 -12 -7 -24 4 -10 9 -21 13 -24 9 -4 -3 -7
-1 -7 7 0 10 -3 10 -14 1 -10 -8 -16 -9 -21 -1 -9 15 -38 13 -29 -2 6 -10 4
-10 -7 0 -7 6 -24 12 -37 12 -16 0 -21 -4 -16 -12 6 -10 4 -10 -7 -2 -8 6 -23
11 -34 11 -11 0 -26 -5 -34 -11 -12 -9 -13 -8 -6 3 6 11 3 13 -12 9 -11 -3
-28 -1 -38 5 -12 6 -16 6 -11 -1 3 -5 -1 -13 -10 -16 -8 -3 -13 -2 -10 3 3 5
-3 11 -14 14 -13 3 -18 1 -13 -5 3 -7 1 -8 -6 -4 -21 14 -72 25 -66 15 4 -5 2
-9 -3 -9 -6 0 -13 7 -16 16 -5 14 -9 14 -23 3 -12 -10 -14 -10 -9 -1 4 6 3 12
-3 12 -5 0 -12 -6 -14 -12 -4 -10 -6 -10 -6 -1 -1 7 -8 10 -18 6 -12 -5 -14
-3 -8 8 8 12 6 12 -8 0 -13 -10 -17 -10 -17 -1 0 10 -3 10 -15 0 -11 -9 -15
-9 -15 -1 0 7 -4 10 -9 6 -5 -3 -16 3 -23 14 -14 20 -63 36 -71 23 -2 -4 -3
-2 -1 5 4 18 -8 24 -23 12 -8 -7 -13 -8 -13 -1 0 5 -7 12 -14 15 -10 4 -13 1
-9 -9z m1563 -454 c0 -5 -5 -10 -11 -10 -5 0 -7 5 -4 10 3 6 8 10 11 10 2 0 4
-4 4 -10z m60 -15 c0 -2 -10 -9 -22 -15 -22 -11 -22 -10 -4 4 21 17 26 19 26
11z m100 -25 c0 -5 -2 -10 -4 -10 -3 0 -8 5 -11 10 -3 6 -1 10 4 10 6 0 11 -4
11 -10z m675 -1070 c3 -5 1 -10 -4 -10 -6 0 -11 5 -11 10 0 6 2 10 4 10 3 0 8
-4 11 -10z m-3960 -5871 c-4 -5 -12 -9 -18 -8 -9 0 -8 2 1 6 6 2 9 10 6 15 -4
7 -2 8 5 4 6 -4 9 -12 6 -17z m3525 -49 c-6 -11 -13 -20 -16 -20 -2 0 0 9 6
20 6 11 13 20 16 20 2 0 0 -9 -6 -20z m1759 -104 c-3 -3 -11 5 -18 17 -13 21
-12 21 5 5 10 -10 16 -20 13 -22z m2 -53 c13 -16 12 -17 -3 -4 -10 7 -18 15
-18 17 0 8 8 3 21 -13z m35 -28 c1 -8 -1 -17 -5 -19 -4 -3 -7 6 -7 19 0 25 8
25 12 0z m-1 -94 c3 -5 2 -12 -3 -15 -5 -3 -9 1 -9 9 0 17 3 19 12 6z m25
-202 c0 -5 -4 -9 -8 -9 -5 0 -9 7 -9 15 0 8 4 12 9 9 4 -3 8 -9 8 -15z m-6
-27 c2 -4 -4 -8 -14 -8 -10 0 -16 4 -14 8 3 4 9 8 14 8 5 0 11 -4 14 -8z m-6
-50 c-7 -10 -14 -19 -15 -21 -3 -4 2 28 6 47 1 2 6 0 11 -3 8 -5 7 -12 -2 -23z
m2 -38 c0 -8 -19 -13 -24 -6 -3 5 1 9 9 9 8 0 15 -2 15 -3z m-11 -50 c4 3 8
-1 8 -9 0 -11 -4 -12 -14 -4 -7 6 -13 17 -12 23 0 7 2 6 6 -2 2 -6 8 -10 12
-8z"/>
<path d="M3220 7889 c0 -5 5 -7 10 -4 6 3 10 8 10 11 0 2 -4 4 -10 4 -5 0 -10
-5 -10 -11z"/>
<path d="M5868 6943 c7 -3 16 -2 19 1 4 3 -2 6 -13 5 -11 0 -14 -3 -6 -6z"/>
<path d="M7197 993 c-10 -9 -9 -23 1 -23 5 0 9 7 9 15 0 17 -1 18 -10 8z"/>
<path d="M7230 880 c0 -5 5 -10 11 -10 5 0 7 5 4 10 -3 6 -8 10 -11 10 -2 0
-4 -4 -4 -10z"/>
<path d="M7270 660 c-9 -6 -10 -10 -3 -10 6 0 15 5 18 10 8 12 4 12 -15 0z"/>
<path d="M7185 90 c-3 -5 1 -10 10 -10 9 0 13 5 10 10 -3 6 -8 10 -10 10 -2 0
-7 -4 -10 -10z"/>
</g>
</svg>
